<svg width="50" height="50" viewBox="0 0 50 50" fill="none" xmlns="http://www.w3.org/2000/svg">
<g clip-path="url(#clip0_43_1551)">
<mask id="mask0_43_1551" style="mask-type:luminance" maskUnits="userSpaceOnUse" x="0" y="0" width="50" height="50">
<path d="M0.164368 0.255005H49.8481V49.745H0.164368V0.255005Z" fill="white"/>
</mask>
<g mask="url(#mask0_43_1551)">
<mask id="mask1_43_1551" style="mask-type:luminance" maskUnits="userSpaceOnUse" x="0" y="0" width="50" height="50">
<path d="M25 0.255005C11.2836 0.255005 0.164368 11.3336 0.164368 25C0.164368 38.6665 11.2836 49.745 25 49.745C38.7163 49.745 49.8356 38.6665 49.8356 25C49.8356 11.3336 38.7163 0.255005 25 0.255005Z" fill="white"/>
</mask>
<g mask="url(#mask1_43_1551)">
<path d="M0.164368 0.255005H49.8481V49.745H0.164368V0.255005Z" fill="#002B5B"/>
</g>
</g>
<mask id="mask2_43_1551" style="mask-type:luminance" maskUnits="userSpaceOnUse" x="21" y="1" width="8" height="7">
<path d="M21.5972 1.43396H28.5417V7.98615H21.5972V1.43396Z" fill="white"/>
</mask>
<g mask="url(#mask2_43_1551)">
<path fill-rule="evenodd" clip-rule="evenodd" d="M27.1604 7.84192L25.0679 6.34941L22.9861 7.85657L23.7603 5.40702L21.6824 3.89444L24.2535 3.87328L25.051 1.43079L25.8654 3.86785L28.4365 3.87056L26.3688 5.3978L27.1604 7.84192Z" fill="#FDC500"/>
</g>
<path fill-rule="evenodd" clip-rule="evenodd" d="M16.9097 10.6093L14.8172 9.11681L12.7355 10.624L13.5097 8.17443L11.4318 6.66184L14.0028 6.64068L14.8004 4.19873L15.6147 6.63525L18.1858 6.63851L16.1182 8.1652L16.9097 10.6093Z" fill="#FDC500"/>
<path fill-rule="evenodd" clip-rule="evenodd" d="M37.1593 10.549L35.0668 9.05651L32.985 10.5637L33.7592 8.11412L31.6813 6.60154L34.2524 6.58038L35.0499 4.13843L35.8643 6.57495L38.4354 6.57821L36.3678 8.1049L37.1593 10.549Z" fill="#FDC500"/>
<path fill-rule="evenodd" clip-rule="evenodd" d="M44.5801 18.0859L42.4875 16.5934L40.4058 18.1005L41.18 15.651L39.1021 14.1384L41.6732 14.1172L42.4707 11.6753L43.2851 14.1118L45.8561 14.1151L43.7885 15.6418L44.5801 18.0859Z" fill="#FDC500"/>
<mask id="mask3_43_1551" style="mask-type:luminance" maskUnits="userSpaceOnUse" x="41" y="21" width="8" height="8">
<path d="M41.7361 21.7361H48.6393V28.2639H41.7361V21.7361Z" fill="white"/>
</mask>
<g mask="url(#mask3_43_1551)">
<path fill-rule="evenodd" clip-rule="evenodd" d="M47.3464 28.2025L45.2539 26.7095L43.1722 28.2172L43.9464 25.7676L41.8685 24.255L44.4395 24.2339L45.2365 21.7914L46.0514 24.2279L48.6225 24.2312L46.5549 25.7584L47.3464 28.2025Z" fill="#FDC500"/>
</g>
<path fill-rule="evenodd" clip-rule="evenodd" d="M44.5801 38.3821L42.4875 36.8896L40.4058 38.3968L41.18 35.9473L39.1021 34.4347L41.6732 34.4135L42.4707 31.9716L43.2851 34.4081L45.8561 34.4113L43.7885 35.938L44.5801 38.3821Z" fill="#FDC500"/>
<path fill-rule="evenodd" clip-rule="evenodd" d="M37.0964 45.7964L35.0038 44.3039L32.9221 45.811L33.6963 43.3615L31.6184 41.8489L34.1895 41.8277L34.9865 39.3853L35.8014 41.8218L38.3724 41.825L36.3048 43.3523L37.0964 45.7964Z" fill="#FDC500"/>
<mask id="mask4_43_1551" style="mask-type:luminance" maskUnits="userSpaceOnUse" x="21" y="42" width="8" height="7">
<path d="M21.5972 42.0139H28.4028V48.5173H21.5972V42.0139Z" fill="white"/>
</mask>
<g mask="url(#mask4_43_1551)">
<path fill-rule="evenodd" clip-rule="evenodd" d="M27.0974 48.4988L25.0049 47.0057L22.9232 48.5134L23.6974 46.0639L21.6194 44.5513L24.1905 44.5301L24.9875 42.0876L25.8024 44.5242L28.3735 44.5274L26.3059 46.0547L27.0974 48.4988Z" fill="#FDC500"/>
</g>
<path fill-rule="evenodd" clip-rule="evenodd" d="M16.8468 45.7335L14.7548 44.241L12.6725 45.7481L13.4467 43.2986L11.3688 41.786L13.9399 41.7648L14.7374 39.3229L15.5518 41.7594L18.1229 41.7627L16.0553 43.2893L16.8468 45.7335Z" fill="#FDC500"/>
<path fill-rule="evenodd" clip-rule="evenodd" d="M9.55134 38.3198L7.45933 36.8268L5.37762 38.3345L6.15182 35.8849L4.07391 34.3718L6.64444 34.3512L7.44197 31.9087L8.25686 34.3452L10.8274 34.3485L8.76033 35.8757L9.55134 38.3198Z" fill="#FDC500"/>
<mask id="mask5_43_1551" style="mask-type:luminance" maskUnits="userSpaceOnUse" x="1" y="21" width="8" height="8">
<path d="M1.34766 21.5972H8.125V28.1249H1.34766V21.5972Z" fill="white"/>
</mask>
<g mask="url(#mask5_43_1551)">
<path fill-rule="evenodd" clip-rule="evenodd" d="M6.84785 28.0771L4.75583 26.5841L2.67413 28.0918L3.44832 25.6417L1.36987 24.1291L3.94095 24.108L4.73847 21.666L5.55282 24.1025L8.12389 24.1058L6.05683 25.6325L6.84785 28.0771Z" fill="#FDC500"/>
</g>
<path fill-rule="evenodd" clip-rule="evenodd" d="M9.74067 17.8342L7.64865 16.3417L5.56695 17.8488L6.34115 15.3993L4.2627 13.8867L6.83377 13.8655L7.63129 11.4236L8.44564 13.8601L11.0167 13.8634L8.94965 15.3901L9.74067 17.8342Z" fill="#FDC500"/>
<path d="M23.2577 31.6503L22.3398 28.6382H17.7239L16.8081 31.6503H13.9153L18.3836 18.9398H21.6648L26.1505 31.6503H23.2577ZM21.6996 26.3856C20.85 23.6555 20.372 22.112 20.2651 21.7545C20.1593 21.3959 20.0834 21.1132 20.0372 20.906C19.8463 21.6438 19.3005 23.4705 18.401 26.3856H21.6996Z" fill="white"/>
<path d="M35.032 31.6504H27.7425V18.9919H35.032V21.1903H30.427V23.9702H34.713V26.1686H30.427V29.4347H35.032V31.6504Z" fill="white"/>
</g>
<defs>
<clipPath id="clip0_43_1551">
<rect width="50" height="50" fill="white"/>
</clipPath>
</defs>
</svg>
